<svg xmlns="http://www.w3.org/2000/svg" xmlns:xlink="http://www.w3.org/1999/xlink" version="1.1" style="shape-rendering:geometricPrecision; text-rendering:geometricPrecision; image-rendering:optimizeQuality; fill-rule:evenodd; clip-rule:evenodd" viewBox="173.54 587.01 2549.93 1723.27">
<g><path style="opacity:1" fill="#92400e" d="M 1724.5,587.5 C 1790.27,586.027 1855.94,587.86 1921.5,593C 1955.88,597.815 1989.54,604.481 2022.5,613C 2024.03,615.881 2023.36,618.214 2020.5,620C 2003.28,624.293 1986.28,629.626 1969.5,636C 1903.79,653.991 1842.12,680.658 1784.5,716C 1747.33,741.167 1716.17,772.333 1691,809.5C 1687.61,815.271 1684.45,821.271 1681.5,827.5C 1682,827.833 1682.5,828.167 1683,828.5C 1689.56,825.469 1696.06,822.303 1702.5,819C 1721.58,811.528 1740.92,804.862 1760.5,799C 1783.09,793.616 1805.76,788.616 1828.5,784C 1896.25,776.157 1963.92,776.824 2031.5,786C 2054.37,791.289 2077.37,795.956 2100.5,800C 2173.94,819.695 2244.27,847.029 2311.5,882C 2328.88,892.022 2346.22,902.022 2363.5,912C 2372.49,918.499 2381.83,924.499 2391.5,930C 2401.43,937.645 2411.43,945.312 2421.5,953C 2427.17,956.667 2432.83,960.333 2438.5,964C 2443.18,969.843 2448.84,974.509 2455.5,978C 2456.45,979.955 2457.79,981.622 2459.5,983C 2469.43,990.585 2479.09,998.585 2488.5,1007C 2506.36,1025.53 2523.52,1044.69 2540,1064.5C 2540.47,1066.25 2541.14,1067.91 2542,1069.5C 2556.68,1087.7 2567.85,1107.87 2575.5,1130C 2575.33,1132.16 2574.17,1133.33 2572,1133.5C 2552.68,1122.76 2532.85,1112.93 2512.5,1104C 2511.5,1103 2510.5,1102 2509.5,1101C 2449.28,1077.49 2386.78,1064.99 2322,1063.5C 2301.16,1064.51 2280.33,1065.68 2259.5,1067C 2317.69,1084.59 2371.36,1110.92 2420.5,1146C 2471.08,1183.58 2515.25,1227.41 2553,1277.5C 2591.46,1329.07 2623.8,1384.41 2650,1443.5C 2658.51,1465.87 2667.18,1488.2 2676,1510.5C 2683.09,1535.34 2690.43,1560.01 2698,1584.5C 2704.32,1614.12 2710.32,1643.78 2716,1673.5C 2717.39,1690.52 2719.06,1707.52 2721,1724.5C 2724.59,1771.87 2724.26,1819.2 2720,1866.5C 2718.76,1871.64 2716.09,1872.64 2712,1869.5C 2710.84,1855.21 2708.17,1841.21 2704,1827.5C 2698.45,1816.41 2693.45,1805.07 2689,1793.5C 2677.73,1775.54 2666.4,1757.54 2655,1739.5C 2622.6,1695.74 2586.43,1654.9 2546.5,1617C 2534.87,1607.71 2523.54,1598.04 2512.5,1588C 2486.67,1568.32 2459.01,1551.82 2429.5,1538.5C 2428.07,1541.42 2429.07,1542.75 2432.5,1542.5C 2432.5,1543.5 2432.5,1544.5 2432.5,1545.5C 2435.9,1547.71 2439.23,1550.21 2442.5,1553C 2459.65,1572.4 2476.48,1592.23 2493,1612.5C 2498.67,1621.17 2504.34,1629.84 2510,1638.5C 2524.75,1658.37 2537.08,1679.7 2547,1702.5C 2548.42,1705.01 2550.09,1707.34 2552,1709.5C 2557.73,1723.28 2563.73,1736.95 2570,1750.5C 2575.49,1765.45 2580.82,1780.45 2586,1795.5C 2587.2,1802.61 2588.86,1809.61 2591,1816.5C 2596.87,1832.12 2601.54,1848.12 2605,1864.5C 2608.53,1882.65 2611.69,1900.82 2614.5,1919C 2614.17,1919.33 2613.83,1919.67 2613.5,1920C 2615.12,1922.17 2615.95,1924.67 2616,1927.5C 2624.66,2005.5 2624.66,2083.5 2616,2161.5C 2612.18,2185.94 2607.84,2210.28 2603,2234.5C 2599.8,2244.44 2596.8,2254.44 2594,2264.5C 2590.26,2272.43 2587.6,2280.76 2586,2289.5C 2583.26,2295.91 2580.42,2302.24 2577.5,2308.5C 2574.96,2311.16 2572.79,2310.83 2571,2307.5C 2570.24,2303.18 2569.57,2298.85 2569,2294.5C 2562.62,2273.76 2554.62,2253.76 2545,2234.5C 2534.27,2215.37 2523.27,2196.37 2512,2177.5C 2500.71,2159.77 2488.54,2142.6 2475.5,2126C 1751.17,2125.33 1026.83,2125.33 302.5,2126C 283.207,2139.22 261.874,2143.89 238.5,2140C 222.302,2136.65 208.136,2129.48 196,2118.5C 190.42,2111.01 185.087,2103.34 180,2095.5C 170.212,2068.88 171.545,2042.88 184,2017.5C 204.295,1988.45 232.128,1975.95 267.5,1980C 276.153,1982.66 284.819,1985.32 293.5,1988C 301.516,1993.53 309.016,1999.69 316,2006.5C 319.627,2010.77 322.461,2015.43 324.5,2020.5C 400.586,2003.06 463.42,1964.39 513,1904.5C 529.683,1881.15 544.35,1856.48 557,1830.5C 560.374,1819.36 564.707,1808.7 570,1798.5C 570.667,1796.5 570.667,1794.5 570,1792.5C 556.881,1770.01 544.548,1747.01 533,1723.5C 527.502,1709.18 521.502,1695.18 515,1681.5C 511.471,1667.77 506.805,1654.44 501,1641.5C 498.528,1629.57 495.195,1617.9 491,1606.5C 479.455,1558.69 470.789,1510.36 465,1461.5C 459.307,1381.37 460.64,1301.37 469,1221.5C 474.18,1192.93 478.847,1164.26 483,1135.5C 495.029,1074.43 511.696,1014.76 533,956.5C 538.92,944.402 544.253,932.069 549,919.5C 553.587,911.996 557.92,904.329 562,896.5C 563.925,894.027 565.758,894.027 567.5,896.5C 569.718,927.22 572.552,957.887 576,988.5C 581.516,1015.77 586.849,1043.1 592,1070.5C 602.842,1112.28 617.175,1152.61 635,1191.5C 648.723,1219.96 664.723,1246.96 683,1272.5C 683.652,1237.96 686.652,1203.63 692,1169.5C 697.706,1149.7 703.039,1129.7 708,1109.5C 723.213,1063.55 741.88,1019.22 764,976.5C 813.474,886.38 874.974,805.546 948.5,734C 963.942,720.277 979.275,706.444 994.5,692.5C 1001.14,689.849 1006.14,685.516 1009.5,679.5C 1035.57,660.952 1062.23,643.119 1089.5,626C 1115.52,612.782 1142.52,601.782 1170.5,593C 1186.98,590.123 1189.48,594.623 1178,606.5C 1173,614.5 1168,622.5 1163,630.5C 1157.82,643.185 1152.16,655.518 1146,667.5C 1141.59,683.725 1136.59,699.725 1131,715.5C 1119.18,765.095 1114.85,815.429 1118,866.5C 1152.88,822.289 1193.05,783.456 1238.5,750C 1254.07,737.111 1270.73,725.778 1288.5,716C 1292.5,713 1296.5,710 1300.5,707C 1332.35,689.361 1365.02,673.028 1398.5,658C 1411.79,653.791 1424.79,648.791 1437.5,643C 1485.26,626.783 1533.92,614.116 1583.5,605C 1602.24,601.981 1620.91,598.648 1639.5,595C 1667.97,592.312 1696.3,589.812 1724.5,587.5 Z M 1087.5,1633.5 C 1088.87,1633.34 1090.21,1633.51 1091.5,1634C 1099.7,1642.93 1107.53,1652.09 1115,1661.5C 1117.22,1668.23 1120.56,1674.23 1125,1679.5C 1149.7,1738.25 1143.37,1793.25 1106,1844.5C 1069.97,1886.31 1024.14,1905.14 968.5,1901C 909.792,1892.6 867.958,1861.76 843,1808.5C 839.535,1796.44 835.869,1784.44 832,1772.5C 831.399,1766.16 830.733,1759.83 830,1753.5C 829.708,1743.12 830.375,1732.79 832,1722.5C 832.557,1720.39 833.391,1718.39 834.5,1716.5C 850.837,1710.83 867.171,1704.99 883.5,1699C 906.909,1692.31 930.242,1685.31 953.5,1678C 981.948,1668.61 1010.28,1658.94 1038.5,1649C 1045.7,1648.09 1052.7,1646.43 1059.5,1644C 1068.88,1640.38 1078.21,1636.88 1087.5,1633.5 Z"/></g>
</svg>